# xmcd
#
# Track frame offsets:
#	150
#	17702
#	42870
#	62208
#	102096
#	130281
#	155180
#	178022
#	218523
#	241670
#
# Disc length: 3687 seconds
#
# Revision: 0
# Processed by: cddbd v1.5.1PL2 Copyright (c) Steve Scherf et al.
# Submitted via: dBpowerAMP V4.0
#
DISCID=820e650a
DTITLE=Joey Fender and the 55's - Blues Til I Die
DYEAR=2005
DGENRE=Blues
TTITLE0=Stick Shift Honey
TTITLE1=Older The Bull
TTITLE2=Downin' Out
TTITLE3=Stare Enough For Days
TTITLE4=Heel
TTITLE5=Rock These Blues
TTITLE6=Booze Blues and Cigarettes
TTITLE7=Satisfaction Guaran-damn-teed
TTITLE8=If Smokin' Were The Devil
TTITLE9=Rocket Sweet
EXTD=
EXTT0=
EXTT1=
EXTT2=
EXTT3=
EXTT4=
EXTT5=
EXTT6=
EXTT7=
EXTT8=
EXTT9=
PLAYORDER=
